<svg xmlns="http://www.w3.org/2000/svg" width="160" height="36.912" viewBox="0 0 160 36.912"><defs><style>.a{fill:#fff;}</style></defs><g transform="translate(-94.359 -138.473)"><circle class="a" cx="3.664" cy="3.664" r="3.664" transform="translate(190.961 138.473)"/><path class="a" d="M167.541,148.913h7.328v25.84h-7.328v-3c-1.923,2.421-6.249,3.631-9.531,3.631a12.7,12.7,0,0,1-5.123-1.019,12.343,12.343,0,0,1-4.078-2.86,13.184,13.184,0,0,1-2.71-4.327,14.778,14.778,0,0,1-.97-5.421,14.377,14.377,0,0,1,.945-5.2,13.35,13.35,0,0,1,2.636-4.3,12.443,12.443,0,0,1,4.028-2.909,12.282,12.282,0,0,1,5.172-1.069c3.183,0,7.542,1.111,9.631,3.332Zm-15.21,12.893a7.689,7.689,0,0,0,2.156,5.408,7.056,7.056,0,0,0,2.382,1.609,7.657,7.657,0,0,0,2.994.58,7.5,7.5,0,0,0,2.929-.58,7.086,7.086,0,0,0,2.382-1.609,8.348,8.348,0,0,0,1.61-2.382,6.956,6.956,0,0,0,.611-2.9,7.179,7.179,0,0,0-.611-2.929,8.241,8.241,0,0,0-1.61-2.415,7.115,7.115,0,0,0-2.382-1.609,7.517,7.517,0,0,0-2.929-.579,7.674,7.674,0,0,0-2.994.579,7.086,7.086,0,0,0-2.382,1.609,7.963,7.963,0,0,0-1.578,2.35A7.053,7.053,0,0,0,152.331,161.806Z"/><path class="a" d="M94.359,139.222h7.328v19.091l8.581-9.4h8.774l-9.834,10.172,10.172,15.668h-8.485l-6.6-10.606-2.6,2.748v7.858H94.359Z"/><path class="a" d="M127.272,148.912,133,166.047l5.773-17.135h7.608l-10.1,25.841-.008.019h-6.655l-.008-.019-10.1-25.841Z"/><path class="a" d="M178.965,139.222h7.328v35.531h-7.328Z"/><path class="a" d="M190.961,148.913h7.328v25.84h-7.328Z"/><path class="a" d="M203.873,154.89h-3.037v-5.977h3.037v-1.4c0-2.844.723-4.917,2.073-6.267a8.041,8.041,0,0,1,5.93-2.025H214.5v5.83h-.723c-2.542,0-2.67,0-2.67,3.138v.723h3.344v5.978H211.1v19.862h-7.232Z"/><path class="a" d="M229.339,139.222h7.328v19.091l8.581-9.4h8.774l-9.835,10.172,10.172,15.668h-8.485l-6.6-10.606-2.6,2.748v7.858h-7.328Z"/><path class="a" d="M217.68,148.913h7.328v25.84H217.68Z"/><circle class="a" cx="3.664" cy="3.664" r="3.664" transform="translate(217.68 138.473)"/></g></svg>