<svg xmlns="http://www.w3.org/2000/svg" width="76" height="17.648" viewBox="0 0 76 17.648">
  <g id="Group_189" data-name="Group 189" transform="translate(-92.76 -52.525)">
    <circle id="Ellipse_9" data-name="Ellipse 9" cx="1.74" cy="1.74" r="1.74" transform="translate(138.646 52.525)" fill="#fff"/>
    <path id="Path_207" data-name="Path 207" d="M232.411,78.44h3.481V90.558h-3.481V89.212c-.914,1.15-2.968,1.724-4.527,1.724a6.027,6.027,0,0,1-2.433-.484,5.861,5.861,0,0,1-1.937-1.358,6.27,6.27,0,0,1-1.287-2.055,7.023,7.023,0,0,1-.461-2.575A6.826,6.826,0,0,1,222.214,82a6.347,6.347,0,0,1,1.252-2.043,5.905,5.905,0,0,1,1.914-1.382,5.833,5.833,0,0,1,2.457-.508,6.911,6.911,0,0,1,4.574,1.583Zm-7.225,6.047a3.656,3.656,0,0,0,1.024,2.568,3.351,3.351,0,0,0,1.132.765,3.637,3.637,0,0,0,1.422.275,3.562,3.562,0,0,0,1.391-.275,3.36,3.36,0,0,0,1.132-.765,3.961,3.961,0,0,0,.765-1.131,3.3,3.3,0,0,0,.29-1.376,3.411,3.411,0,0,0-.29-1.392,3.911,3.911,0,0,0-.765-1.147,3.376,3.376,0,0,0-1.132-.765,3.569,3.569,0,0,0-1.391-.275,3.644,3.644,0,0,0-1.422.275,3.367,3.367,0,0,0-1.132.765,3.779,3.779,0,0,0-.749,1.116A3.349,3.349,0,0,0,225.186,84.487Z" transform="translate(-104.889 -20.763)" fill="#fff"/>
    <path id="Path_208" data-name="Path 208" d="M92.76,55.287h3.481v8.908l4.076-4.465h4.168l-4.671,4.832L104.645,72h-4.03l-3.137-5.038-1.237,1.305V72H92.76Z" transform="translate(0 -2.246)" fill="#fff"/>
    <path id="Path_209" data-name="Path 209" d="M156.514,78.611H160.2l2.748,8.221,2.771-8.221h3.618l-4.832,12.366h-3.16Z" transform="translate(-51.836 -21.21)" fill="#fff"/>
    <path id="Path_210" data-name="Path 210" d="M307.741,54.429h3.481V71.306h-3.481Z" transform="translate(-174.793 -1.548)" fill="#fff"/>
    <path id="Path_211" data-name="Path 211" d="M338.223,79.051H341.7V91.325h-3.481Z" transform="translate(-199.577 -21.567)" fill="#fff"/>
    <path id="Path_212" data-name="Path 212" d="M364.758,61.894h-1.443V59.032h1.443v-.664a4.05,4.05,0,0,1,.985-2.977,3.817,3.817,0,0,1,2.817-.962H369.8V57.2h-.343c-1.208,0-1.268,0-1.268,1.49v.343h1.589v2.84h-1.589v9.435h-3.435Z" transform="translate(-219.979 -1.548)" fill="#fff"/>
    <path id="Path_213" data-name="Path 213" d="M435.74,54.429h3.481V63.5l4.076-4.465h4.168l-4.671,4.832,4.832,7.442h-4.03l-3.137-5.038-1.237,1.305v3.733H435.74Z" transform="translate(-278.865 -1.548)" fill="#fff"/>
    <g id="Group_189-2" data-name="Group 189" transform="translate(151.337 52.525)">
      <path id="Path_214" data-name="Path 214" d="M406.115,79.051H409.6V91.325h-3.481Z" transform="translate(-406.115 -74.092)" fill="#fff"/>
      <circle id="Ellipse_10" data-name="Ellipse 10" cx="1.74" cy="1.74" r="1.74" transform="translate(0)" fill="#fff"/>
    </g>
  </g>
</svg>
