<svg xmlns="http://www.w3.org/2000/svg" width="67.2" height="66.8" viewBox="0 0 67.2 66.8">
  <g id="mailchimp-gdpr" transform="translate(-2.4 -1.9)">
    <path id="Path_1" data-name="Path 1" d="M37.7,6l.4,2.4L36,7.3,33.9,8.4,34.3,6,32.6,4.4,34.9,4,36,1.9,37,4l2.3.4Zm0,60.3.4,2.4L36,67.6l-2.1,1.1.4-2.4-1.7-1.6,2.3-.4L36,62.2l1,2.1,2.3.4ZM52.8,10l.4,2.3-2.1-1.1-2,1.1.4-2.3L47.8,8.3,50.1,8l1-2.1L52.2,8l2.3.3ZM22.5,10l.4,2.3-2.1-1.1-2.1,1.1.4-2.3L17.4,8.3,19.8,8l1-2.1L21.9,8l2.3.3ZM52.8,62.4l.4,2.3-2.1-1.1-2,1.1.4-2.3-1.7-1.7,2.3-.3,1-2.1,1.1,2.1,2.3.3Zm-30.3,0,.4,2.3-2.1-1.1-2.1,1.1.4-2.3-1.7-1.7,2.4-.3,1-2.1,1.1,2.1,2.3.3ZM63.8,21.1l.4,2.3-2.1-1.1L60,23.4l.4-2.3-1.7-1.7,2.3-.3,1.1-2.2,1,2.2,2.4.3Zm-52.3,0,.4,2.3L9.8,22.3,7.7,23.4l.4-2.3L6.4,19.4l2.3-.3,1.1-2.2,1,2.2,2.3.3ZM63.8,51.2l.4,2.4-2.1-1.1L60,53.6l.4-2.4-1.7-1.6,2.3-.4,1.1-2.1,1,2.1,2.4.4Zm-52.3,0,.4,2.4L9.8,52.5,7.7,53.6l.4-2.4L6.4,49.6l2.3-.4,1.1-2.1,1,2.1,2.3.4Zm-4-14.9.4,2.3L5.8,37.5,3.7,38.6l.4-2.3L2.4,34.6l2.4-.3,1-2.1,1.1,2.1,2.3.3Zm60.4,0,.4,2.3-2.1-1.1-2.1,1.1.4-2.3-1.6-1.7,2.3-.3,1-2.1,1.1,2.1,2.3.3Z" fill="#fff"/>
    <g id="Group_1" data-name="Group 1">
      <path id="Path_2" data-name="Path 2" d="M47.1,49.5a22.992,22.992,0,0,1-11.5,9.1l-.2.1h-.2a23,23,0,0,1-11.6-9.2H47.1Zm5.1-29.2-.1-.5L35.4,16.1h-.1L19.1,19.8l-.5.1-.1.5a56.322,56.322,0,0,0,.3,16.1,35.684,35.684,0,0,0,3.8,11H48.1a43.088,43.088,0,0,0,3.7-11A58.131,58.131,0,0,0,52.2,20.3ZM44.1,40.4v.2l-19.7.1V26.8h1.8v-2h6.1v2H44.2v3.4h3.6L44.1,40.4Z" fill="#fff"/>
    </g>
    <path id="Path_3" data-name="Path 3" d="M24.4,40.6l3.2-11.2,20.2.1" fill="none" stroke="#fff" stroke-miterlimit="10" stroke-width="1.5"/>
    <path id="Path_4" data-name="Path 4" d="M23.1,33.4h2.6l-1.5,7Z" fill="#fff" stroke="#fff" stroke-miterlimit="10" stroke-width="1"/>
  </g>
</svg>
