<svg xmlns="http://www.w3.org/2000/svg" width="27" height="26.999" viewBox="0 0 27 26.999">
  <g id="Group_393" data-name="Group 393" transform="translate(-2040 -960)">
    <path id="Path_334" data-name="Path 334" d="M2043,993v-3h-3v9h3v-6Z" transform="translate(0 -24)" fill="#49eaac"/>
    <rect id="Rectangle_428" data-name="Rectangle 428" width="3" height="3" transform="translate(2043 963)" fill="#49eaac"/>
    <path id="Path_335" data-name="Path 335" d="M2076,963h3v-3h-9v3h6Z" transform="translate(-24)" fill="#49eaac"/>
    <rect id="Rectangle_429" data-name="Rectangle 429" width="3" height="3" transform="translate(2055 963)" fill="#49eaac"/>
    <path id="Path_336" data-name="Path 336" d="M2130,996v3h3v-9h-3v6Z" transform="translate(-72 -24)" fill="#49eaac"/>
    <rect id="Rectangle_430" data-name="Rectangle 430" width="3" height="3" transform="translate(2055 975)" fill="#49eaac"/>
    <path id="Path_337" data-name="Path 337" d="M2073,1050h-3v3h9v-3h-6Z" transform="translate(-24 -72.001)" fill="#49eaac"/>
    <rect id="Rectangle_431" data-name="Rectangle 431" width="3" height="3" transform="translate(2043 975)" fill="#49eaac"/>
    <rect id="Rectangle_432" data-name="Rectangle 432" width="3" height="3" transform="translate(2058 978)" fill="#49eaac"/>
    <rect id="Rectangle_433" data-name="Rectangle 433" width="3" height="3" transform="translate(2061 980.999)" fill="#49eaac"/>
    <rect id="Rectangle_434" data-name="Rectangle 434" width="3" height="3" transform="translate(2064 983.999)" fill="#49eaac"/>
  </g>
</svg>
