<svg xmlns="http://www.w3.org/2000/svg" width="87.98" height="88.033" viewBox="0 0 87.98 88.033">
  <g id="Group_310" data-name="Group 310" transform="translate(-185 -6134)">
    <path id="icons8-analyzing_skill" d="M46.99,2.988V43.194a6.948,6.948,0,0,0-6,6.8,7.031,7.031,0,0,0,7,7h36a7.031,7.031,0,0,0,7-7v-47Zm-7.969.563a2,2,0,0,0-.34.027C29.127,5.061,22.586,9.37,18.434,15.208c-4.053,5.7-5.835,12.722-6.661,19.939l-8.1,13.962-.008.016a5.267,5.267,0,0,0,2,7.11l.039.02,6.114,3.059,1.969,14.419,0,.023a10.871,10.871,0,0,0,11,9.227l-.082,0,6.274,0v8h1.66a2,2,0,0,0,.668,0h1.672v-12L24.68,78.985h-.043a6.9,6.9,0,0,1-6.895-5.864l0,.047L15.5,56.679,7.613,52.733a1.123,1.123,0,0,1-.453-1.664L15.6,36.518l.047-.426c.756-7.029,2.485-13.559,6.047-18.568S30.6,8.881,39.3,7.532a2,2,0,0,0-.277-3.981ZM50.99,6.989h36v43a2.969,2.969,0,0,1-3,3v0a2.991,2.991,0,0,1-1-5.813V42.991h-32Zm6,26v4h24v-4Zm-9,14H77.7a6.719,6.719,0,0,0-.008,6H47.99a3,3,0,0,1,0-6ZM73.316,60.968a2,2,0,0,0-1.762,1.024A32.407,32.407,0,0,0,66.991,78.18V90.993h1.664a2,2,0,0,0,.652,0h1.684V78.18a28.387,28.387,0,0,1,4.028-14.188,2,2,0,0,0-1.7-3.024Z" transform="translate(181.987 6131.012)" fill="#49eaac"/>
    <path id="icons8-analyzing_skill-2" data-name="icons8-analyzing_skill" d="M72.992,26.5l2.586-2.586-4.586-4.586-6,6-7.414-7.414L60.4,15.09l4.586,4.586,6-6,7.414,7.415L80.992,18.5v8Z" transform="translate(181.987 6131.012)" fill="#49eaac"/>
  </g>
</svg>
